<svg width="24" height="24" viewBox="0 0 24 24" fill="none" xmlns="http://www.w3.org/2000/svg">
<path d="M11.04 2.37999C10.88 2.53999 7.73 5.98997 6.77 7.04997C6.4 7.45997 6.43001 8.08998 6.84001 8.45998C7.25001 8.82998 7.88 8.79997 8.25 8.38997C9.09 7.46997 10.15 6.30999 11 5.37999L11 18.56C9.82 17.32 8.41 15.85 8.41 15.85C8.03 15.45 7.4 15.44 7 15.82C6.6 16.2 6.59 16.83 6.97 17.23C8.21 18.53 11.11 21.56 11.18 21.63C11.39 21.84 11.66 21.96 11.95 21.99C12.32 22.02 12.68 21.89 12.95 21.61C13.1 21.46 16.13 18.14 17.05 17.12C17.22 16.93 17.31 16.69 17.31 16.45C17.31 16.18 17.2 15.91 16.98 15.71C16.57 15.34 15.94 15.37 15.57 15.78C14.79 16.64 13.8 17.72 13 18.6L13 5.42998C14.24 6.72998 15.76 8.31999 15.76 8.31999C16.14 8.71999 16.77 8.72999 17.17 8.34999C17.38 8.14999 17.48 7.88999 17.48 7.62999C17.48 7.37999 17.39 7.12999 17.2 6.93999C15.91 5.58999 12.89 2.42997 12.82 2.35997C12.38 1.92997 11.6 1.81997 11.04 2.38997L11.04 2.37999Z" fill="#4D4D4F"/>
</svg>
