<svg width="17" height="16" viewBox="0 0 17 16" fill="none" xmlns="http://www.w3.org/2000/svg">
<path fill-rule="evenodd" clip-rule="evenodd" d="M2.5 0C1.39543 0 0.5 0.895431 0.5 2V14C0.5 15.1046 1.39543 16 2.5 16H14.5C15.6046 16 16.5 15.1046 16.5 14V2C16.5 0.895431 15.6046 0 14.5 0H2.5ZM14.0303 5.03033C14.3232 4.73744 14.3232 4.26256 14.0303 3.96967C13.7374 3.67678 13.2626 3.67678 12.9697 3.96967L7 9.93934L4.53033 7.46967C4.23744 7.17678 3.76256 7.17678 3.46967 7.46967C3.17678 7.76256 3.17678 8.23744 3.46967 8.53033L6.46967 11.5303C6.76256 11.8232 7.23744 11.8232 7.53033 11.5303L14.0303 5.03033Z" fill="#009CB4"/>
</svg>
