<svg width="24" height="24" viewBox="0 0 24 24" fill="none" xmlns="http://www.w3.org/2000/svg">
<path d="M17 4V3C17 2.45 16.55 2 16 2C15.45 2 15 2.45 15 3V4H9V3C9 2.45 8.55 2 8 2C7.45 2 7 2.45 7 3V4C4.79 4 3 5.79 3 8V17C3 19.21 4.79 21 7 21H17C19.21 21 21 19.21 21 17V8C21 5.79 19.21 4 17 4ZM19 17C19 18.1 18.1 19 17 19H7C5.9 19 5 18.1 5 17V8C5 6.9 5.9 6 7 6V7C7 7.55 7.45 8 8 8C8.55 8 9 7.55 9 7V6H15V7C15 7.55 15.45 8 16 8C16.55 8 17 7.55 17 7V6C18.1 6 19 6.9 19 8V17Z" fill="#A8AAAE"/>
<path d="M9.71001 11.3C9.34001 10.93 8.65999 10.93 8.28999 11.3C8.19999 11.39 8.13 11.5 8.08 11.62C8.03 11.75 8 11.88 8 12.01C8 12.14 8.03 12.27 8.08 12.39C8.13 12.51 8.19999 12.62 8.28999 12.71C8.47999 12.9 8.74 13.01 9 13.01C9.13 13.01 9.26 12.98 9.38 12.93C9.5 12.88 9.61001 12.81 9.71001 12.71C9.80001 12.62 9.87 12.51 9.92 12.39C9.98 12.27 10 12.14 10 12.01C10 11.88 9.98 11.75 9.92 11.62C9.87 11.5 9.80001 11.39 9.71001 11.3Z" fill="#A8AAAE"/>
<path d="M9.71001 14.3C9.66001 14.25 9.61 14.21 9.56 14.18C9.5 14.14 9.44 14.11 9.38 14.08C9.32 14.06 9.26 14.04 9.2 14.03C9.07 14 8.93 14 8.81 14.03C8.74 14.03 8.68 14.06 8.62 14.08C8.56 14.11 8.5 14.14 8.45 14.18C8.39 14.21 8.33999 14.25 8.28999 14.3C8.19999 14.39 8.13 14.5 8.08 14.62C8.03 14.75 8 14.87 8 15.01C8 15.28 8.10999 15.53 8.28999 15.71C8.47999 15.9 8.74 16.01 9 16.01C9.26 16.01 9.52001 15.9 9.71001 15.71C9.90001 15.53 10 15.28 10 15.01C10 14.87 9.97 14.75 9.92 14.62C9.87 14.5 9.80001 14.39 9.71001 14.3Z" fill="#A8AAAE"/>
<path d="M12.71 11.3C12.66 11.25 12.61 11.21 12.56 11.17C12.5 11.14 12.44 11.11 12.38 11.08C12.32 11.06 12.26 11.04 12.2 11.03C12 10.99 11.8 11.01 11.62 11.08C11.5 11.13 11.39 11.21 11.29 11.3C11.2 11.39 11.13 11.5 11.08 11.62C11.03 11.75 11 11.88 11 12.01C11 12.14 11.03 12.27 11.08 12.39C11.13 12.51 11.2 12.62 11.29 12.71C11.39 12.81 11.5 12.88 11.62 12.93C11.74 12.98 11.87 13.01 12 13.01C12.13 13.01 12.26 12.98 12.38 12.93C12.5 12.88 12.61 12.81 12.71 12.71C12.8 12.62 12.87 12.51 12.92 12.39C12.98 12.27 13 12.14 13 12.01C13 11.88 12.98 11.75 12.92 11.62C12.87 11.5 12.8 11.39 12.71 11.3Z" fill="#A8AAAE"/>
<path d="M12.71 14.3C12.62 14.21 12.51 14.13 12.38 14.08C12.14 13.98 11.86 13.98 11.62 14.08C11.5 14.13 11.39 14.21 11.29 14.3C11.2 14.39 11.13 14.5 11.08 14.62C11.03 14.75 11 14.87 11 15.01C11 15.14 11.03 15.27 11.08 15.39C11.13 15.51 11.2 15.62 11.29 15.71C11.39 15.81 11.5 15.88 11.62 15.93C11.74 15.98 11.87 16.01 12 16.01C12.27 16.01 12.52 15.9 12.71 15.71C12.8 15.62 12.87 15.51 12.93 15.39C12.98 15.27 13 15.14 13 15.01C13 14.88 12.98 14.75 12.92 14.62C12.87 14.5 12.8 14.39 12.71 14.3Z" fill="#A8AAAE"/>
<path d="M15.71 11.3C15.62 11.21 15.51 11.13 15.38 11.08C15.01 10.93 14.57 11.02 14.29 11.3C14.2 11.39 14.13 11.5 14.08 11.62C14.03 11.75 14 11.88 14 12.01C14 12.14 14.03 12.27 14.08 12.39C14.13 12.51 14.2 12.62 14.29 12.71C14.39 12.81 14.5 12.88 14.62 12.93C14.74 12.98 14.87 13.01 15 13.01C15.13 13.01 15.26 12.98 15.38 12.93C15.5 12.88 15.61 12.81 15.71 12.71C15.8 12.62 15.87 12.51 15.92 12.39C15.98 12.27 16 12.14 16 12.01C16 11.88 15.98 11.75 15.92 11.62C15.87 11.5 15.8 11.39 15.71 11.3Z" fill="#A8AAAE"/>
<path d="M15.71 14.3C15.66 14.25 15.61 14.21 15.56 14.18C15.5 14.14 15.44 14.11 15.38 14.08C15.32 14.06 15.26 14.04 15.2 14.03C15.07 14 14.93 14 14.81 14.03C14.74 14.03 14.68 14.06 14.62 14.08C14.56 14.11 14.5 14.14 14.45 14.18C14.39 14.21 14.34 14.25 14.29 14.3C14.2 14.39 14.13 14.5 14.08 14.62C14.03 14.75 14 14.87 14 15.01C14 15.28 14.11 15.53 14.29 15.71C14.48 15.9 14.74 16.01 15 16.01C15.26 16.01 15.52 15.9 15.71 15.71C15.9 15.53 16 15.28 16 15.01C16 14.87 15.97 14.75 15.92 14.62C15.87 14.5 15.8 14.39 15.71 14.3Z" fill="#A8AAAE"/>
</svg>
