<svg width="19" height="19" viewBox="0 0 19 19" fill="none" xmlns="http://www.w3.org/2000/svg">
<path d="M17.8099 16.35L14.9099 13.45C15.9999 12.05 16.5899 10.34 16.5899 8.54C16.5899 6.39 15.7499 4.37 14.2299 2.85C11.0999 -0.289997 5.98988 -0.289997 2.85988 2.85C-0.280117 5.99 -0.280117 11.09 2.85988 14.22C4.37988 15.74 6.39988 16.58 8.54988 16.58C10.3699 16.58 12.0999 15.97 13.4999 14.87L16.3999 17.77C16.5999 17.97 16.8499 18.06 17.1099 18.06C17.3699 18.06 17.6199 17.96 17.8199 17.77C18.2099 17.38 18.2099 16.75 17.8199 16.36L17.8099 16.35ZM4.26988 12.81C1.90988 10.45 1.90988 6.62 4.26988 4.27C5.44988 3.09 6.99988 2.5 8.53988 2.5C10.0799 2.5 11.6299 3.09 12.8099 4.27C13.9899 5.45 14.5799 6.93 14.5799 8.54C14.5799 10.15 13.9499 11.67 12.8099 12.81C11.6699 13.95 10.1499 14.58 8.53988 14.58C6.92988 14.58 5.40988 13.95 4.26988 12.81Z" fill="#C6C6C6"/>
</svg>
