<svg width="24" height="24" viewBox="0 0 24 24" fill="none" xmlns="http://www.w3.org/2000/svg">
<path d="M7.02123 10.6433L11.3041 14.7159C11.3969 14.8059 11.5073 14.8774 11.629 14.9261C11.7506 14.9749 11.8811 15 12.0129 15C12.1447 15 12.2752 14.9749 12.3969 14.9261C12.5185 14.8774 12.6289 14.8059 12.7217 14.7159L16.9547 10.6433C17.0483 10.554 17.1225 10.4477 17.1732 10.3307C17.2239 10.2136 17.25 10.0881 17.25 9.96129C17.25 9.83448 17.2239 9.70894 17.1732 9.59189C17.1225 9.47484 17.0483 9.36861 16.9547 9.27931C16.7676 9.10041 16.5146 9 16.2509 9C15.9871 9 15.7341 9.10041 15.547 9.27931L12.0129 12.6796L8.4788 9.27931C8.29285 9.10186 8.04187 9.00182 7.77996 9.00076C7.64858 9.00003 7.51833 9.02426 7.39669 9.07206C7.27506 9.11986 7.16443 9.19029 7.07114 9.27931C6.97423 9.36539 6.89601 9.4691 6.84099 9.58443C6.78597 9.69977 6.75526 9.82445 6.75062 9.95127C6.74598 10.0781 6.7675 10.2045 6.81395 10.3233C6.8604 10.4421 6.93085 10.5508 7.02123 10.6433Z" fill="#676A71"/>
</svg>
